<svg id="Capa_1" data-name="Capa 1" xmlns="http://www.w3.org/2000/svg" viewBox="0 0 550.69 550.69"><defs><style>.cls-1{fill:#e50014;}</style></defs><path class="cls-1" d="M497.61,269.51c-25.55,30.36-50.66,60.19-76,90.29-25.32-30.09-50.43-59.91-76-90.28-22,62.71-43.73,124.92-65.7,187.67l-78.27-64.72q60.64-127.05,121.45-254.38L421.6,250.56l98.46-112.39c.54,1.06,1,1.89,1.4,2.74q59.06,124.34,118.13,248.65c1,2.11,1,3.25-.94,4.87q-36.82,30.21-73.5,60.61c-.74.61-1.52,1.17-2.64,2C540.88,394.55,519.34,332.32,497.61,269.51Z" transform="translate(-145.6 -22.29)"/><path class="cls-1" d="M420.94,573C269.12,573,145.6,449.46,145.6,297.64S269.12,22.29,420.94,22.29,696.29,145.81,696.29,297.64,572.77,573,420.94,573Zm0-535.34c-143.36,0-260,116.64-260,260s116.63,260,260,260,260-116.64,260-260S564.31,37.64,420.94,37.64Z" transform="translate(-145.6 -22.29)"/></svg>